<svg xmlns="http://www.w3.org/2000/svg" width="256" height="256" viewBox="0 0 100 100"><rect width="100" height="100" rx="50" fill="#ffe799"></rect><path fill="#722695" d="M30.95 57.16L34.38 49.03L46.56 30.24L56.17 29.40L48.91 70.60L40.32 70.60L42.94 55.72L46.56 41.98L46.45 41.95L39.73 54.91L31.33 67.28L26.39 67.28L22.72 56.13L20.64 41.98L20.48 42.01L19.18 57.16L16.83 70.60L8.41 70.60L14.40 36.50L14.70 30.26L24.53 29.45L30.38 48.97L30.95 57.16ZM69.24 64.44L85.63 64.44L85.28 70.60L55.36 70.60L54.85 68.28L76.99 38.55L82.36 35.23L76.50 36.26L62.92 36.26L63.27 30.10L90.76 30.10L91.59 31.69L69.13 62.12L63.27 65.47L69.24 64.44Z"></path></svg>